PathFileType	4	(X/Y/Z)	/home/nbianco/projects/addbio/data/HamnerRunning2013/Processed/subject01//results/MarkerData/run400.trc
DataRate	CameraRate	NumFrames	NumMarkers	Units	OrigDataRate	OrigDataStartFrame	OrigNumFrames
100	100	10	42	m	100	153	205
Frame#	Time	C7			CLAV			LACR			LASI			LCAL			LFAradius			LFAsuperior			LFAulna			LLEL			LMEL			LMT5			LPSI			LTB1			LTB2			LTB3			LTH1			LTH2			LTH3			LTOE			LUA1			LUA2			LUA3			RACR			RASI			RCAL			RFAradius			RFAsuperior			RFAulna			RLEL			RMEL			RMT5			RPSI			RTB1			RTB2			RTB3			RTH1			RTH2			RTH3			RTOE			RUA1			RUA2			RUA3		
		X1	Y1	Z1	X2	Y2	Z2	X3	Y3	Z3	X4	Y4	Z4	X5	Y5	Z5	X6	Y6	Z6	X7	Y7	Z7	X8	Y8	Z8	X9	Y9	Z9	X10	Y10	Z10	X11	Y11	Z11	X12	Y12	Z12	X13	Y13	Z13	X14	Y14	Z14	X15	Y15	Z15	X16	Y16	Z16	X17	Y17	Z17	X18	Y18	Z18	X19	Y19	Z19	X20	Y20	Z20	X21	Y21	Z21	X22	Y22	Z22	X23	Y23	Z23	X24	Y24	Z24	X25	Y25	Z25	X26	Y26	Z26	X27	Y27	Z27	X28	Y28	Z28	X29	Y29	Z29	X30	Y30	Z30	X31	Y31	Z31	X32	Y32	Z32	X33	Y33	Z33	X34	Y34	Z34	X35	Y35	Z35	X36	Y36	Z36	X37	Y37	Z37	X38	Y38	Z38	X39	Y39	Z39	X40	Y40	Z40	X41	Y41	Z41	X42	Y42	Z42

154	2.4	0.907612	1.5219	-0.334309	1.0276	1.44646	-0.311948	0.946852	1.5131	-0.496718	0.972345	1.02154	-0.501365	0.725268	0.395827	-0.420104	0.904019	1.14364	-0.55336	0.754024	1.21593	-0.645147	0.875626	1.09213	-0.594347	0.7095	1.29054	-0.646878	0.685884	1.26682	-0.562149	0.796511	0.216038	-0.517657	0.821001	1.07757	-0.420663	1.10662	0.470555	-0.440514	0.968195	0.480662	-0.495852	0.91168	0.371702	-0.444117	0.953968	0.896912	-0.533818	0.968891	0.742765	-0.506933	1.09153	0.660776	-0.502736	0.857109	0.19784	-0.425002	0.828049	1.44855	-0.541984	0.834595	1.37842	-0.592044	0.746239	1.34435	-0.617942	0.988125	1.47021	-0.176753	0.965767	1.01323	-0.228997	0.530326	0.139564	-0.333742	1.11318	1.12876	-0.154097	0.976653	1.12429	-0.0362538	1.11071	1.07279	-0.11374	0.874192	1.15982	-0.0140835	0.866086	1.13485	-0.101395	0.706526	0.0505959	-0.269081	0.81151	1.07464	-0.308339	0.838005	0.346373	-0.311868	0.748316	0.339484	-0.243301	0.70842	0.202796	-0.329377	0.877181	0.899277	-0.181016	0.822032	0.754114	-0.210551	0.860107	0.597651	-0.225639	0.758605	0.0690276	-0.365303	0.899787	1.36245	-0.103401	0.947952	1.30479	-0.0887222	0.894102	1.22242	-0.0420351
155	2.41	0.907244	1.52938	-0.334331	1.02779	1.45514	-0.314592	0.943856	1.52174	-0.496871	0.974613	1.02895	-0.499303	0.753651	0.367261	-0.415089	0.895688	1.16115	-0.555196	0.743805	1.2328	-0.643595	0.867974	1.10987	-0.596758	0.699118	1.30676	-0.644076	0.677342	1.28227	-0.559014	0.841826	0.196499	-0.51493	0.823219	1.08497	-0.41871	1.12551	0.481065	-0.44172	0.985572	0.477869	-0.493416	0.940908	0.362796	-0.44181	0.956055	0.908085	-0.535484	0.973664	0.753112	-0.505885	1.09833	0.674939	-0.502276	0.906246	0.184973	-0.424088	0.823793	1.46093	-0.539799	0.827707	1.39092	-0.591147	0.737996	1.3593	-0.615838	0.99046	1.47925	-0.178383	0.970937	1.01791	-0.229696	0.498798	0.15535	-0.329874	1.11962	1.15093	-0.162863	0.987093	1.1364	-0.0415886	1.1221	1.09462	-0.12312	0.883774	1.16606	-0.0164007	0.8745	1.1422	-0.104085	0.666786	0.0517476	-0.268817	0.815564	1.08116	-0.306364	0.807372	0.354125	-0.310356	0.717788	0.34959	-0.2422	0.676134	0.212455	-0.327739	0.880554	0.904939	-0.182227	0.815423	0.763474	-0.209524	0.842265	0.605677	-0.225782	0.718778	0.0683787	-0.364634	0.904218	1.37018	-0.104098	0.953917	1.313	-0.0907224	0.902429	1.22952	-0.0437177
156	2.42	0.907062	1.53718	-0.334296	1.0281	1.46412	-0.317103	0.941324	1.53053	-0.49705	0.976535	1.03674	-0.496935	0.784907	0.338401	-0.408293	0.8883	1.17843	-0.556711	0.734366	1.2493	-0.641696	0.860648	1.12715	-0.59831	0.689804	1.3229	-0.640859	0.669794	1.29788	-0.555566	0.887787	0.178515	-0.511827	0.825112	1.09279	-0.416441	1.14244	0.490886	-0.443492	1.002	0.474108	-0.490483	0.970889	0.353986	-0.439331	0.957793	0.919187	-0.53707	0.977481	0.763551	-0.50449	1.10324	0.688096	-0.501686	0.955973	0.173885	-0.423504	0.820206	1.47327	-0.537798	0.821767	1.40339	-0.590049	0.730756	1.37441	-0.6134	0.992978	1.48878	-0.180058	0.97687	1.02289	-0.230041	0.470554	0.172648	-0.325856	1.12416	1.17322	-0.171364	0.996162	1.14918	-0.0466323	1.13133	1.11688	-0.132062	0.892465	1.17334	-0.0185799	0.881621	1.15057	-0.106546	0.628061	0.0532677	-0.268254	0.82035	1.08792	-0.304082	0.778221	0.363968	-0.308249	0.688741	0.36146	-0.240444	0.647011	0.22395	-0.326447	0.885899	0.910405	-0.183741	0.809608	0.773742	-0.208399	0.824867	0.615761	-0.225774	0.679957	0.0676016	-0.363436	0.908361	1.37872	-0.104671	0.959578	1.32184	-0.0927051	0.910055	1.23759	-0.04526
157	2.43	0.907026	1.54481	-0.334206	1.02857	1.47295	-0.3194	0.939115	1.53917	-0.497106	0.978208	1.0448	-0.494376	0.818709	0.309951	-0.400511	0.8819	1.19495	-0.55792	0.726002	1.26521	-0.639509	0.853845	1.14338	-0.599032	0.68161	1.33853	-0.637349	0.663272	1.31306	-0.551803	0.934374	0.16218	-0.50826	0.826795	1.10085	-0.414084	1.15732	0.499663	-0.444979	1.01781	0.469093	-0.487445	1.00117	0.345441	-0.436751	0.958981	0.929726	-0.538509	0.980442	0.773651	-0.502619	1.10627	0.699755	-0.500804	1.00592	0.164949	-0.422931	0.817096	1.4852	-0.535838	0.816587	1.41565	-0.5888	0.724402	1.38929	-0.610563	0.995627	1.49833	-0.181853	0.983239	1.02796	-0.230961	0.445931	0.191199	-0.322116	1.12707	1.19509	-0.179406	1.00407	1.16255	-0.0514306	1.13861	1.13889	-0.140394	0.900409	1.18136	-0.0203735	0.88759	1.15958	-0.108462	0.590758	0.055726	-0.267583	0.825617	1.09477	-0.301499	0.751264	0.375564	-0.305751	0.66178	0.37467	-0.238149	0.621192	0.236492	-0.324859	0.891877	0.915653	-0.185246	0.804448	0.7846	-0.207181	0.808358	0.627469	-0.225641	0.642562	0.0670288	-0.362354	0.912589	1.3878	-0.104807	0.965004	1.33097	-0.0945394	0.916981	1.24635	-0.0464582
158	2.44	0.907147	1.55189	-0.334058	1.02915	1.48119	-0.321508	0.937216	1.54737	-0.496935	0.98006	1.05281	-0.491847	0.854546	0.28254	-0.392843	0.876537	1.21034	-0.558981	0.718782	1.28022	-0.637107	0.847903	1.15836	-0.599403	0.674445	1.35316	-0.633603	0.657766	1.32711	-0.547798	0.981683	0.147781	-0.504216	0.82865	1.10881	-0.411888	1.1702	0.507014	-0.445336	1.03347	0.462551	-0.484626	1.03132	0.337266	-0.43407	0.959587	0.939322	-0.539793	0.982346	0.782803	-0.500205	1.10741	0.709351	-0.49925	1.05561	0.158442	-0.421715	0.814406	1.49643	-0.533779	0.811956	1.42741	-0.587411	0.718743	1.40339	-0.607307	0.998225	1.50739	-0.183811	0.989525	1.03284	-0.233254	0.424971	0.211226	-0.318687	1.12863	1.21597	-0.186681	1.0109	1.17617	-0.0560078	1.14422	1.16011	-0.147926	0.907728	1.18977	-0.0216214	0.892764	1.16863	-0.109632	0.55519	0.0600335	-0.266714	0.830982	1.10153	-0.298868	0.726963	0.388687	-0.303181	0.63714	0.389182	-0.235695	0.598165	0.249625	-0.322356	0.896905	0.921037	-0.186292	0.800027	0.79577	-0.206	0.793563	0.640132	-0.22536	0.606517	0.0672408	-0.361734	0.916883	1.39692	-0.104706	0.970181	1.34004	-0.0961499	0.923279	1.25545	-0.0471643
159	2.45	0.907472	1.55816	-0.333832	1.02979	1.48848	-0.323502	0.9357	1.55482	-0.496571	0.982258	1.06029	-0.48972	0.891832	0.256706	-0.386362	0.87224	1.22436	-0.560119	0.712577	1.29389	-0.634567	0.84302	1.17201	-0.59989	0.668162	1.3663	-0.629641	0.653155	1.3394	-0.543699	1.02987	0.13552	-0.499604	0.83076	1.11618	-0.410006	1.18127	0.512743	-0.444257	1.04944	0.45449	-0.482159	1.06112	0.329587	-0.431268	0.959766	0.947612	-0.541032	0.982701	0.790306	-0.497507	1.1067	0.716405	-0.496876	1.1045	0.154365	-0.418981	0.812154	1.50668	-0.531598	0.807749	1.43833	-0.585882	0.713634	1.4162	-0.603702	1.00061	1.51562	-0.185877	0.995248	1.03728	-0.236566	0.407774	0.232808	-0.31523	1.12907	1.23533	-0.193006	1.01672	1.18945	-0.0601901	1.14844	1.18003	-0.154601	0.914505	1.19808	-0.0222455	0.897455	1.17712	-0.109993	0.521767	0.0668783	-0.265448	0.836055	1.10796	-0.296649	0.705651	0.40285	-0.300922	0.615064	0.404789	-0.233605	0.577549	0.263185	-0.31909	0.900285	0.926845	-0.186561	0.796543	0.806962	-0.205092	0.781147	0.652979	-0.224978	0.571754	0.0689192	-0.361391	0.920971	1.40559	-0.104766	0.975005	1.34874	-0.0974836	0.929063	1.26447	-0.0473092
160	2.46	0.908019	1.56353	-0.333544	1.03047	1.49464	-0.325422	0.934606	1.56125	-0.49617	0.984436	1.06669	-0.488361	0.929907	0.232909	-0.381752	0.868989	1.23684	-0.56147	0.707247	1.30585	-0.631969	0.839227	1.18425	-0.600706	0.662685	1.37759	-0.625501	0.649253	1.34955	-0.539626	1.07904	0.125183	-0.494032	0.832765	1.12257	-0.408461	1.19067	0.516959	-0.442134	1.06575	0.44533	-0.480039	1.09035	0.322628	-0.428321	0.9597	0.954182	-0.542364	0.981169	0.795594	-0.495064	1.10434	0.720706	-0.494116	1.15193	0.152574	-0.414092	0.810342	1.51569	-0.529417	0.803976	1.44802	-0.584238	0.709048	1.42735	-0.599912	1.00272	1.5228	-0.187929	1.00016	1.04124	-0.239452	0.394205	0.255518	-0.311326	1.12858	1.25252	-0.19845	1.02162	1.20168	-0.063642	1.15138	1.19804	-0.160508	0.920782	1.20583	-0.0222139	0.901733	1.18467	-0.109562	0.490665	0.0763713	-0.263816	0.840552	1.1138	-0.295203	0.687598	0.417082	-0.299373	0.596142	0.420667	-0.232208	0.559232	0.277035	-0.31591	0.902461	0.932972	-0.186042	0.794124	0.817777	-0.204646	0.771291	0.665282	-0.224688	0.538344	0.0727542	-0.360852	0.924658	1.41344	-0.105168	0.979402	1.35675	-0.098512	0.934433	1.27292	-0.0469196
161	2.47	0.908748	1.56799	-0.333298	1.03126	1.4997	-0.327249	0.933886	1.56657	-0.495926	0.985961	1.07157	-0.487823	0.967991	0.211485	-0.379085	0.86673	1.24763	-0.562997	0.702764	1.31585	-0.629396	0.836505	1.19497	-0.601879	0.658037	1.38686	-0.621255	0.646005	1.35754	-0.535576	1.12884	0.116364	-0.486946	0.834233	1.12777	-0.407248	1.19833	0.51993	-0.439705	1.08199	0.435719	-0.478285	1.11844	0.316657	-0.425252	0.959422	0.958647	-0.543758	0.977998	0.798529	-0.493246	1.10067	0.722395	-0.491734	1.19717	0.153068	-0.407096	0.808946	1.52324	-0.527425	0.800738	1.45616	-0.582542	0.705063	1.43667	-0.596132	1.00459	1.52887	-0.189868	1.00422	1.04489	-0.240735	0.3832	0.278633	-0.306782	1.12732	1.26685	-0.203224	1.02574	1.21226	-0.0661076	1.15314	1.21335	-0.16578	0.926552	1.21272	-0.0215239	0.9055	1.19116	-0.108381	0.461546	0.0883086	-0.262113	0.844317	1.11892	-0.294546	0.672878	0.430148	-0.298798	0.581143	0.435579	-0.231371	0.542844	0.290971	-0.313566	0.90432	0.938946	-0.185044	0.792768	0.827611	-0.204628	0.763928	0.67632	-0.224698	0.506292	0.0795052	-0.359849	0.928009	1.42021	-0.105758	0.983433	1.36377	-0.0992739	0.939435	1.28037	-0.0461125
162	2.48	0.909606	1.57158	-0.333271	1.03223	1.50383	-0.328963	0.933443	1.57083	-0.495993	0.98646	1.07483	-0.487729	1.00514	0.192544	-0.377919	0.86542	1.25659	-0.56453	0.699227	1.32372	-0.626906	0.834879	1.20401	-0.603359	0.654302	1.39401	-0.617002	0.643657	1.3635	-0.531494	1.1778	0.10933	-0.478168	0.835091	1.13174	-0.406439	1.20395	0.521786	-0.437521	1.09745	0.426184	-0.476988	1.14455	0.311785	-0.42218	0.958811	0.960857	-0.544952	0.973983	0.799538	-0.491901	1.09608	0.721911	-0.490183	1.23921	0.156073	-0.3987	0.807957	1.52921	-0.525784	0.798159	1.46258	-0.580896	0.701803	1.44405	-0.59253	1.00628	1.53374	-0.191648	1.00745	1.04843	-0.24062	0.372705	0.301602	-0.301692	1.12554	1.2777	-0.207464	1.02922	1.2208	-0.0676016	1.15391	1.22519	-0.170492	0.931731	1.21867	-0.0202355	0.908663	1.19662	-0.106527	0.433939	0.102665	-0.260623	0.847268	1.12326	-0.294413	0.661207	0.441075	-0.299176	0.570452	0.448567	-0.230588	0.527489	0.304905	-0.312066	0.90642	0.944216	-0.18405	0.792457	0.8357	-0.204776	0.759227	0.68524	-0.225041	0.475555	0.0900331	-0.358624	0.931232	1.42567	-0.106264	0.987195	1.36952	-0.0998644	0.944007	1.28659	-0.0450524
163	2.49	0.910565	1.57438	-0.333634	1.03338	1.50717	-0.330587	0.933214	1.57409	-0.496464	0.986129	1.0768	-0.487555	1.0403	0.175965	-0.377716	0.865075	1.26354	-0.565878	0.69679	1.32937	-0.624541	0.834416	1.21121	-0.605014	0.651574	1.39891	-0.612897	0.642617	1.3675	-0.527464	1.22312	0.105471	-0.468267	0.83563	1.13449	-0.40613	1.20727	0.522403	-0.435671	1.11132	0.416964	-0.476165	1.16778	0.307857	-0.41931	0.9578	0.961106	-0.545657	0.970001	0.799415	-0.49057	1.09087	0.719769	-0.48926	1.27682	0.161755	-0.389787	0.807403	1.53357	-0.524614	0.796345	1.46717	-0.579429	0.699402	1.44942	-0.589241	1.00787	1.53745	-0.193235	1.00986	1.05198	-0.240286	0.360791	0.324341	-0.296257	1.12358	1.2847	-0.211112	1.03208	1.22709	-0.0683611	1.15399	1.23304	-0.174618	0.93612	1.22378	-0.018526	0.911144	1.2011	-0.104183	0.407913	0.119644	-0.259402	0.849366	1.12682	-0.294508	0.652047	0.449548	-0.300175	0.563698	0.459486	-0.229393	0.512283	0.319016	-0.31081	0.908798	0.948424	-0.183467	0.793296	0.841332	-0.20486	0.757699	0.691157	-0.225597	0.446385	0.104995	-0.357733	0.934363	1.42967	-0.106597	0.990599	1.3739	-0.100344	0.947954	1.29157	-0.0438999
